<?xml version="1.0" encoding="utf-8"?>
<!-- Generator: Adobe Illustrator 17.1.0, SVG Export Plug-In . SVG Version: 6.00 Build 0)  -->
<!DOCTYPE svg PUBLIC "-//W3C//DTD SVG 1.1//EN" "http://www.w3.org/Graphics/SVG/1.1/DTD/svg11.dtd">
<svg version="1.1" id="Layer_1" xmlns="http://www.w3.org/2000/svg" xmlns:xlink="http://www.w3.org/1999/xlink" x="0px" y="0px"
	 width="36px" height="36px" viewBox="0 0 36 36" enable-background="new 0 0 36 36" xml:space="preserve">
<g id="rocket">
	<g id="startup">
		<path fill="#333333" d="M25.9,10.1C25.8,10,25.8,10,25.7,10c-1.7,0-3.1,0.2-4.2,0.7S19.2,12,18,13.2c-0.5,0.5-1.1,1.2-1.7,1.9
			l-3.7,0.2c-0.1,0-0.2,0.1-0.3,0.2L10,19.3c-0.1,0.1-0.1,0.3,0,0.4l0.6,0.6c0.1,0.1,0.1,0.1,0.2,0.1h0.1l2.7-0.8l2.8,2.8L15.7,25
			c0,0.1,0,0.2,0.1,0.3l0.6,0.6c0.1,0.1,0.1,0.1,0.2,0.1s0.1,0,0.2,0l3.8-2.2c0.1-0.1,0.1-0.2,0.2-0.3l0.2-3.7
			c0.7-0.6,1.4-1.2,1.9-1.7c1.2-1.2,2-2.3,2.5-3.5s0.7-2.6,0.7-4.2C26,10.2,26,10.2,25.9,10.1z M23.5,13.8c-0.2,0.2-0.4,0.3-0.7,0.3
			c-0.3,0-0.5-0.1-0.7-0.3s-0.3-0.4-0.3-0.7s0.1-0.5,0.3-0.7c0.2-0.2,0.4-0.3,0.7-0.3c0.3,0,0.5,0.1,0.7,0.3s0.3,0.4,0.3,0.7
			C23.8,13.4,23.7,13.6,23.5,13.8z"/>
	</g>
</g>
<g id="gear" display="none">
	<g id="tech" display="inline">
		<path fill="#333333" d="M23.8,16.2l-0.4-1l0.9-2.2L23,11.7c-0.1-0.1-2.2,0.9-2.2,0.9l-1-0.4c0,0-0.9-2.2-1-2.2H17
			c-0.1,0-0.9,2.2-0.9,2.2l-1,0.4l-2.2-0.9L11.7,13c-0.1,0.1,0.9,2.2,0.9,2.2l-0.4,1c0,0-2.2,0.9-2.2,1V19c0,0.1,2.2,0.9,2.2,0.9
			l0.4,1l-0.9,2.2l1.2,1.2c0.1,0.1,2.2-0.9,2.2-0.9l1,0.4c0,0,0.9,2.2,1,2.2h1.8c0.1,0,0.9-2.2,0.9-2.2l1-0.4l2.2,0.9l1.2-1.2
			c0.1-0.1-0.9-2.2-0.9-2.2l0.4-1c0,0,2.2-0.9,2.2-1v-1.8C26,17,23.8,16.2,23.8,16.2z M20.6,18c0,1.4-1.2,2.6-2.6,2.6
			s-2.6-1.2-2.6-2.6s1.2-2.6,2.6-2.6S20.6,16.6,20.6,18z"/>
	</g>
</g>
<g id="star" display="none">
	<polygon display="inline" fill="#333333" points="18,10.5 20.4,15.4 26,16.2 22,20.1 23,25.5 18,22.9 13,25.5 14,20.1 10,16.2 
		15.6,15.4 	"/>
</g>
<g id="hammer">
	<path fill="#333333" d="M27.8,14.9l-0.3-0.3c-0.3-0.4-1-0.5-1.4-0.3c-0.1,0-0.2-0.1-0.3-0.2c-0.2-0.2-0.2-0.5-0.2-0.8
		c0-0.4,0-0.8-0.3-1.1l-1.5-1.5c-0.6-0.6-2-2-4.8-2c-0.9,0-1.9,0.1-2.9,0.4c-0.2,0.1-0.4,0.3-0.4,0.5l0,0.6c0,0.3,0.2,0.5,0.5,0.5
		c0.1,0,2.2,0,3.8,1.5c0.1,0.1,0.3,0.4,0,0.6c-0.1,0.2-0.2,0.2-0.2,0.2l-9.4,9.2C10.1,22.6,10,23,10,23.5c0,0.4,0.2,0.8,0.4,1l1,1.1
		c0.3,0.3,0.7,0.4,1.1,0.4c0.4,0,0.8-0.2,1.1-0.5l8.6-9.4c0,0,0.4-0.4,0.6-0.6c0,0,0.1-0.1,0.2-0.1c0.3,0,0.6,0.2,0.8,0.4
		c0.2,0.2,0.2,0.3,0.3,0.4c0,0,0,0,0,0c-0.3,0.4-0.1,1.1,0.2,1.4l0.3,0.4c0.5,0.5,1.3,0.5,1.8,0l1.4-1.5
		C28.3,16.1,28.3,15.4,27.8,14.9z"/>
</g>
</svg>
