<?xml version="1.0" encoding="utf-8"?>
<!-- Generator: Adobe Illustrator 18.1.1, SVG Export Plug-In . SVG Version: 6.00 Build 0)  -->
<svg version="1.1" xmlns="http://www.w3.org/2000/svg" xmlns:xlink="http://www.w3.org/1999/xlink" x="0px" y="0px"
	 viewBox="0 0 36 36" enable-background="new 0 0 36 36" xml:space="preserve">
<g id="list" display="none">
	<g display="inline">
		<rect x="10" y="12" fill="#333333" width="16" height="2"/>
	</g>
	<g display="inline">
		<rect x="10" y="17" fill="#333333" width="16" height="2"/>
	</g>
	<g display="inline">
		<rect x="10" y="22" fill="#333333" width="16" height="2"/>
	</g>
</g>
<g id="settings2" display="none">
	<g display="inline">
		<rect x="10" y="12" fill="#333333" width="16" height="1"/>
	</g>
	<g display="inline">
		<rect x="10" y="17" fill="#333333" width="16" height="1"/>
	</g>
	<g display="inline">
		<rect x="10" y="22" fill="#333333" width="16" height="1"/>
	</g>
	<g display="inline">
		<rect x="12.5" y="10.2" fill="#333333" width="2" height="4.5"/>
	</g>
	<g display="inline">
		<rect x="21.5" y="15.5" fill="#333333" width="2" height="4"/>
	</g>
	<g display="inline">
		<rect x="16.5" y="20.5" fill="#333333" width="2" height="4"/>
	</g>
</g>
<g id="search" display="none">
	<g display="inline">
		<path fill="#333333" d="M16,22c-3.3,0-6-2.7-6-6c0-3.3,2.7-6,6-6c3.3,0,6,2.7,6,6C22,19.3,19.3,22,16,22z M16,12c-2.2,0-4,1.8-4,4
			s1.8,4,4,4s4-1.8,4-4S18.2,12,16,12z"/>
	</g>
	<g display="inline">
		<path fill="#333333" d="M25,26.2c-0.3,0-0.6-0.1-0.9-0.4l-5.3-5.3c-0.5-0.5-0.5-1.3,0-1.8s1.3-0.5,1.8,0l5.3,5.3
			c0.5,0.5,0.5,1.3,0,1.8C25.6,26.1,25.3,26.2,25,26.2z"/>
	</g>
</g>
<g id="plus" display="none">
	<g display="inline">
		<rect x="17" y="12" fill="#333333" width="2" height="12"/>
	</g>
	<g display="inline">
		<rect x="12" y="17" fill="#333333" width="12" height="2"/>
	</g>
</g>
<g id="minus" display="none">
	<g display="inline">
		<rect x="12" y="17" fill="#333333" width="12" height="2"/>
	</g>
</g>
<g id="help" display="none">
	<g display="inline">
		<polygon fill="#333333" points="19,22 17,22 17,18 22,18 22,14 13,14 13,12 24,12 24,20 19,20 		"/>
	</g>
	<g display="inline">
		<rect x="17" y="24" fill="#333333" width="2" height="2"/>
	</g>
</g>
<g id="settings_1_" display="none">
	<g id="gear" display="inline">
		<g id="tech">
			<g>
				<path fill="#333333" d="M23.9,16.2l-0.4-1l0.9-2.2l-1.3-1.3c-0.1-0.1-2.2,0.9-2.2,0.9l-1-0.4c0,0-0.9-2.2-1-2.2H17
					c-0.1,0-0.9,2.2-0.9,2.2l-1,0.4l-2.2-0.9L11.7,13c-0.1,0.1,0.9,2.2,0.9,2.2l-0.4,1c0,0-2.2,0.9-2.2,1V19c0,0.1,2.2,0.9,2.2,0.9
					l0.4,1l-0.9,2.2l1.2,1.2c0.1,0.1,2.2-0.9,2.2-0.9l1,0.4c0,0,0.9,2.2,1,2.2H19c0.1,0,0.9-2.2,0.9-2.2l1-0.4l2.2,0.9l1.2-1.2
					c0.1-0.1-0.9-2.2-0.9-2.2l0.4-1c0,0,2.2-0.9,2.2-1v-1.8C26.1,17,23.9,16.2,23.9,16.2z M20.7,18c0,1.4-1.2,2.6-2.6,2.6
					c-1.4,0-2.6-1.2-2.6-2.6s1.2-2.6,2.6-2.6C19.5,15.4,20.7,16.6,20.7,18z"/>
			</g>
		</g>
	</g>
</g>
<g id="close_settings" display="none">
	<polygon display="inline" fill="#333333" points="23.6,13.8 22.2,12.4 18,16.6 13.8,12.4 12.4,13.8 16.6,18 12.4,22.2 13.8,23.6 
		18,19.4 22.2,23.6 23.6,22.2 19.4,18 	"/>
</g>
<g id="search_cancel">
	<path fill="#333333" d="M18,10c-4.4,0-8,3.6-8,8s3.6,8,8,8s8-3.6,8-8S22.4,10,18,10z M21.5,20.6l-0.9,0.9L18,18.9l-2.6,2.6
		l-0.9-0.9l2.6-2.6l-2.6-2.6l0.9-0.9l2.6,2.6l2.6-2.6l0.9,0.9L18.9,18L21.5,20.6z"/>
</g>
<g id="info" display="none">
	<g display="inline">
		<rect x="17" y="14.5" fill="#333333" width="2" height="9"/>
	</g>
	<g display="inline">
		<rect x="13" y="22.5" fill="#333333" width="10" height="2"/>
	</g>
	<g display="inline">
		<rect x="13" y="14.5" fill="#333333" width="5" height="2"/>
	</g>
	<g display="inline">
		<rect x="17" y="10.5" fill="#333333" width="2" height="2"/>
	</g>
</g>
<g id="down" display="none">
	<g display="inline">
		<polygon fill="#333333" points="18,22.9 12.3,17.2 13.7,15.8 18,20.1 22.3,15.8 23.7,17.2 		"/>
	</g>
</g>
<g id="up" display="none">
	<g display="inline">
		<polygon fill="#333333" points="22.3,22.2 18,17.9 13.7,22.2 12.3,20.8 18,15.1 23.7,20.8 		"/>
	</g>
</g>
<g id="link" display="none">
	<g display="inline">
		<polygon fill="#333333" points="23,22 21,22 21,15 14,15 14,13 23,13 		"/>
	</g>
	<g display="inline">
		<rect x="17" y="12.3" transform="matrix(0.7071 0.7071 -0.7071 0.7071 18 -7.4558)" fill="#333333" width="2" height="11.3"/>
	</g>
</g>
<g id="close" display="none">
	<g display="inline">
		<rect x="17" y="11.5" transform="matrix(0.7071 0.7071 -0.7071 0.7071 18.0002 -7.4559)" width="2" height="13"/>
	</g>
	<g display="inline">
		<rect x="11.5" y="17" transform="matrix(0.7071 0.7071 -0.7071 0.7071 18.0002 -7.4559)" width="13" height="2"/>
	</g>
</g>
<g id="up_x5F_G" display="none">
	<g display="inline">
		<polygon fill="#333333" points="24.5,25.5 18,19 11.5,25.5 10.5,24.5 18,17 25.5,24.5 		"/>
	</g>
</g>
<g id="down_x5F_G" display="none">
	<g display="inline">
		<polygon fill="#333333" points="18,26 10.5,18.5 11.5,17.5 18,24 24.5,17.5 25.5,18.5 		"/>
	</g>
</g>
<g id="left_G" display="none">
	<polygon display="inline" fill="#333333" points="16.5,18 21.5,13 20.1,11.6 15.1,16.6 15.1,16.6 13.7,18 15.1,19.4 20.1,24.4 
		21.5,23 	"/>
</g>
<g id="close_x5F_G" display="none">
	<g display="inline">
		<rect x="17" y="3.9" transform="matrix(0.7071 0.7071 -0.7071 0.7071 18 -7.4558)" fill="#333333" width="2" height="28.3"/>
	</g>
	<g display="inline">
		<rect x="3.9" y="17" transform="matrix(0.7071 0.7071 -0.7071 0.7071 18 -7.4558)" fill="#333333" width="28.3" height="2"/>
	</g>
</g>
<g id="user" display="none">
	<g display="inline">
		<g>
			<circle fill="#333333" cx="18" cy="13.9" r="3.6"/>
		</g>
		<g>
			<path fill="#333333" d="M25.5,22.6c0-0.1,0-0.2,0-0.3c0,0,0,0,0,0c0,0,0-0.1,0-0.1c-0.1-0.3-0.3-0.6-0.5-0.8
				c-1.1-1.2-3.8-2-6.9-2s-5.8,0.8-6.9,2c-0.2,0.2-0.4,0.5-0.5,0.8c0,0,0,0.1,0,0.1c0,0,0,0,0,0c0,0.1,0,0.2,0,0.3c0,0,0,0,0,0
				c0,0,0,0,0,0v3h15V22.6C25.5,22.7,25.5,22.7,25.5,22.6C25.5,22.7,25.5,22.7,25.5,22.6z"/>
		</g>
	</g>
</g>
</svg>
